<svg width="120" height="365" fill="none" xmlns="http://www.w3.org/2000/svg"><path d="M84.39 350.836l2.829 2.828 1.171-1.171v-1.657h-4zm-8.789 8.789v4h1.657l1.172-1.172-2.829-2.828zm-39.023 0l-2.823 2.835 1.171 1.165h1.652v-4zm-8.829-8.789h-4v1.662l1.178 1.173 2.823-2.835zm0-28.399l-2.828-2.828-1.171 1.172v1.656h4zm8.829-8.828v-4H34.92l-1.172 1.172 2.829 2.828zm39.023 0l2.835-2.822-1.173-1.178h-1.662v4zm8.79 8.828h4v-1.651l-1.166-1.171-2.835 2.822zm-13.985 6.368l2.851-2.806-1.175-1.194h-1.676v4zm-28.633 0v-4h-1.657l-1.172 1.171 2.829 2.829zm-2.422 2.422l-2.828-2.829-1.172 1.172v1.657h4zm0 10.781h-4v1.657l1.172 1.171 2.828-2.828zm2.422 2.422l-2.829 2.828 1.172 1.172h1.657v-4zm28.633 0v4h1.676l1.175-1.195-2.851-2.805zm2.383-2.422l2.85 2.805 1.15-1.167v-1.638h-4zm0-10.781h4v-1.638l-1.15-1.168-2.85 2.806zm8.773 16.781l-8.79 8.789 5.657 5.656 8.79-8.789-5.657-5.656zm-5.96 7.617H36.577v8H75.6v-8zM39.4 356.79l-8.828-8.789-5.645 5.67 8.828 8.789 5.645-5.67zm-7.65-5.954v-28.399h-8v28.399h8zm-1.172-25.57l8.828-8.828-5.657-5.657-8.828 8.828 5.657 5.657zm6-7.657H75.6v-8H36.578v8zm36.188-1.177l8.79 8.828 5.669-5.645-8.79-8.828-5.669 5.645zm7.624 6.005v28.399h8v-28.399h-8zm-9.984 2.368H41.773v8h28.633v-8zm-31.462 1.171l-2.421 2.422 5.656 5.657 2.422-2.422-5.657-5.657zm-3.593 5.251v10.781h8v-10.781h-8zm1.172 13.609l2.421 2.422 5.657-5.657-2.422-2.422-5.656 5.657zm5.25 3.594h28.633v-8H41.773v8zm31.484-1.195l2.383-2.422-5.703-5.611-2.383 2.422 5.703 5.611zm3.532-5.227v-10.781h-8v10.781h8zm-1.15-13.587l-2.382-2.422-5.703 5.611 2.383 2.422 5.703-5.611zM56.305 258.57v-4h-1.657l-1.171 1.172 2.828 2.828zm18.906 0l2.829-2.828-1.172-1.172H75.21v4zm8.79 8.789h4v-1.656l-1.172-1.172L84 267.359zm0 35.039v4h4v-4h-4zm-55.86 0h-4v4h4v-4zm0-39.648v-4h-4v4h4zm11.445 0h4v-4h-4v4zm0 24.453h-4v4h4v-4zm10.352 0v4h8.04l-4.85-6.412-3.19 2.412zM47.515 284h-4v1.342l.81 1.07 3.19-2.412zm0-16.641l-2.828-2.828-1.172 1.172v1.656h4zm25.274 19.844v4h4v-4h-4zm0-11.172h4v-1.636l-1.148-1.167-2.852 2.803zm-2.227-2.265l2.853-2.804-1.176-1.196h-1.677v4zm-9.688 0v-4h-1.719l-1.183 1.247 2.902 2.753zm-2.148 2.265l-2.902-2.752-1.098 1.157v1.595h4zm0 11.172h-4v4h4v-4zm-2.422-24.633H75.21v-8H56.304v8zm16.078-1.171l8.79 8.789 5.656-5.657-8.79-8.789-5.656 5.657zm7.617 5.96v35.039h8v-35.039h-8zm4 31.039H28.14v8H84v-8zm-51.859 4V262.75h-8v39.648h8zm-4-35.648h11.445v-8H28.14v8zm7.445-4v24.453h8V262.75h-8zm4 28.453h10.352v-8H39.585v8zm13.543-6.412l-2.422-3.203-6.382 4.824 2.422 3.204 6.382-4.825zM51.515 284v-16.641h-8V284h8zm-1.171-13.812l8.789-8.789-5.657-5.657-8.79 8.789 5.658 5.657zm26.445 17.015v-11.172h-8v11.172h8zm-1.148-13.975l-2.226-2.266-5.706 5.607 2.227 2.266 5.705-5.607zm-5.079-3.462h-9.688v8h9.688v-8zm-12.59 1.247l-2.148 2.266 5.805 5.505 2.148-2.266-5.805-5.505zm-3.246 5.018v11.172h8v-11.172h-8zm4 15.172H72.79v-8H58.726v8zm25.664-50.601l2.829 2.828 1.171-1.172v-1.656h-4zm-8.789 8.789v4h1.657l1.172-1.172-2.829-2.828zm-39.023 0l-2.823 2.834 1.171 1.166h1.652v-4zm-8.829-8.789h-4v1.662l1.178 1.172 2.823-2.834zm0-28.399l-2.828-2.828-1.171 1.171v1.657h4zm8.829-8.828v-4H34.92l-1.172 1.172 2.829 2.828zm39.023 0l2.835-2.822-1.173-1.178h-1.662v4zm8.79 8.828h4v-1.652l-1.166-1.17-2.835 2.822zm-13.985 6.367l2.851-2.805-1.175-1.195h-1.676v4zm-28.633 0v-4h-1.657l-1.172 1.172 2.829 2.828zm-2.422 2.422l-2.828-2.828-1.172 1.171v1.657h4zm0 10.781h-4v1.657l1.172 1.172 2.828-2.829zm2.422 2.422l-2.829 2.829 1.172 1.171h1.657v-4zm28.633 0v4h1.676l1.175-1.194-2.851-2.806zm2.383-2.422l2.85 2.806 1.15-1.168v-1.638h-4zm0-10.781h4v-1.638l-1.15-1.167-2.85 2.805zm8.773 16.781l-8.79 8.789 5.657 5.657 8.79-8.789-5.657-5.657zm-5.96 7.618H36.577v8H75.6v-8zM39.4 246.556l-8.828-8.789-5.645 5.669 8.828 8.789 5.645-5.669zm-7.65-5.954v-28.399h-8v28.399h8zm-1.172-25.57l8.828-8.829-5.657-5.656-8.828 8.828 5.657 5.657zm6-7.657H75.6v-8H36.578v8zm36.188-1.178l8.79 8.828 5.669-5.644-8.79-8.828-5.669 5.644zm7.624 6.006v28.399h8v-28.399h-8zm-9.984 2.367H41.773v8h28.633v-8zm-31.462 1.172l-2.421 2.422 5.656 5.657 2.422-2.422-5.657-5.657zm-3.593 5.25v10.781h8v-10.781h-8zm1.172 13.61l2.421 2.422 5.657-5.657-2.422-2.422-5.656 5.657zm5.25 3.593h28.633v-8H41.773v8zm31.484-1.194l2.383-2.422-5.703-5.611-2.383 2.422 5.703 5.611zm3.532-5.228v-10.781h-8v10.781h8zm-1.15-13.586l-2.382-2.422-5.703 5.611 2.383 2.422 5.703-5.611z" fill="#303030"/><path d="M84 171.695H28.14v-20.468l29.297-7.93 7.031-1.524v-.546l-7.031-1.446-29.297-8.008v-20.312H84v15.195H50.328v.664l7.265 1.367L84 136.578v11.758l-26.406 8.32-7.265 1.367v.664H84v13.008zm0-117.304v15.195H61.617v14.648H84V99.43H28.14V84.234h20.664V69.586H28.14V54.39H84zm0-49.727v37.734H28.14V4.664h11.602v22.54h10.586V7.28H61.03v19.922h11.367V4.664H84z" fill="#FF4D01"/></svg>